<?xml version="1.0" encoding="UTF-8"?>
<svg xmlns="http://www.w3.org/2000/svg" xmlns:xlink="http://www.w3.org/1999/xlink" width="800px" height="800px" viewBox="0 0 800 800" version="1.1">
<g id="surface1">
<path style=" stroke:none;fill-rule:nonzero;fill:rgb(0%,0%,0%);fill-opacity:1;" d="M 197.601562 186.238281 C 182.398438 191.039062 172.640625 199.199219 165.921875 212.640625 L 160.800781 223.199219 L 160.800781 448.800781 L 165.28125 457.921875 C 173.28125 474.238281 187.519531 484.160156 207.519531 487.199219 L 214.238281 488.320312 L 214.71875 523.199219 C 215.199219 557.601562 215.199219 558.238281 219.039062 562.238281 C 221.761719 565.121094 224.640625 566.398438 228.480469 566.398438 C 233.761719 566.398438 237.121094 564.320312 271.359375 540 C 275.039062 537.28125 292.640625 524.800781 310.558594 512 L 343.199219 488.800781 L 520.800781 487.199219 L 529.921875 482.878906 C 540.800781 477.761719 550.078125 468.800781 555.359375 458.238281 L 559.199219 450.398438 L 559.199219 221.601562 L 554.398438 212.160156 C 548.160156 199.679688 538.238281 191.199219 525.121094 187.199219 C 515.199219 184.160156 510.398438 184 359.359375 184.160156 C 239.199219 184.160156 202.558594 184.640625 197.601562 186.238281 Z M 520 214.238281 C 523.039062 215.839844 527.039062 219.039062 528.800781 221.441406 C 532 225.761719 532 228.160156 532.480469 333.761719 C 532.960938 453.921875 533.441406 448.320312 522.078125 456 L 516.160156 460 L 425.921875 460.480469 L 335.679688 460.960938 L 296.960938 488.480469 C 250.558594 521.441406 243.519531 526.398438 242.398438 526.398438 C 241.921875 526.398438 241.601562 513.28125 241.601562 497.121094 C 241.441406 473.761719 240.960938 467.359375 239.039062 464.800781 C 236.960938 462.078125 234.078125 461.441406 219.839844 460.640625 C 201.921875 459.679688 198.078125 458.078125 191.359375 448.960938 C 188 444.640625 188 442.71875 187.519531 338.71875 C 187.199219 245.28125 187.359375 232 189.601562 226.078125 C 191.839844 220.160156 196.480469 215.519531 203.199219 212.480469 C 204.480469 211.839844 275.039062 211.359375 360 211.359375 C 507.359375 211.199219 514.71875 211.359375 520 214.238281 Z M 520 214.238281 "/>
<path style=" stroke:none;fill-rule:nonzero;fill:rgb(0%,0%,0%);fill-opacity:1;" d="M 255.039062 311.839844 C 246.558594 316.960938 243.199219 322.71875 243.199219 331.679688 C 243.199219 342.238281 247.839844 349.761719 257.121094 353.921875 C 280.640625 364.320312 301.441406 335.199219 283.839844 316.320312 C 276.320312 308.320312 264 306.398438 255.039062 311.839844 Z M 255.039062 311.839844 "/>
<path style=" stroke:none;fill-rule:nonzero;fill:rgb(0%,0%,0%);fill-opacity:1;" d="M 347.519531 312 C 340.160156 316.480469 335.359375 327.519531 336.800781 336.480469 C 338.398438 345.441406 347.519531 354.398438 356.640625 356 C 370.238281 358.238281 384 346.398438 384 332.480469 C 384 314.398438 363.039062 302.558594 347.519531 312 Z M 347.519531 312 "/>
<path style=" stroke:none;fill-rule:nonzero;fill:rgb(0%,0%,0%);fill-opacity:1;" d="M 443.839844 310.398438 C 442.078125 311.039062 438.398438 314.238281 435.519531 317.441406 C 431.199219 322.398438 430.398438 324.480469 430.398438 331.679688 C 430.398438 342.71875 434.71875 349.601562 444.160156 353.921875 C 452.480469 357.441406 458.558594 356.960938 466.71875 352 C 481.601562 343.039062 480.320312 318.71875 464.480469 311.199219 C 459.039062 308.640625 449.28125 308.160156 443.839844 310.398438 Z M 443.839844 310.398438 "/>
<path style=" stroke:none;fill-rule:nonzero;fill:rgb(0%,0%,0%);fill-opacity:1;" d="M 584.640625 233.601562 C 580 235.519531 576 241.441406 576 246.558594 C 576 253.761719 581.28125 258.558594 590.238281 259.839844 C 599.519531 261.121094 607.359375 266.71875 610.558594 274.71875 C 612.320312 278.878906 612.800781 299.679688 612.800781 383.839844 C 612.800781 498.878906 612.960938 496.480469 602.71875 504.160156 C 598.398438 507.359375 595.199219 508 581.121094 508.800781 C 557.761719 509.921875 558.398438 508.960938 558.398438 545.761719 C 558.398438 561.441406 557.761719 574.398438 556.960938 574.398438 C 555.839844 574.398438 547.839844 568.960938 529.601562 555.679688 C 527.359375 554.078125 511.679688 542.878906 494.558594 530.878906 L 463.679688 508.800781 L 340.640625 508.800781 L 336.800781 512.800781 C 330.878906 518.558594 331.359375 526.558594 337.761719 531.839844 L 342.71875 536 L 455.359375 536 L 464.960938 542.878906 C 497.921875 567.039062 563.039062 612.800781 566.71875 614.398438 C 570.238281 616 572 616 576.160156 614.398438 C 584.640625 610.878906 585.601562 605.921875 585.601562 568.800781 L 585.601562 536 L 590.078125 536 C 603.519531 536 622.558594 525.761719 630.398438 514.238281 C 640.160156 500.320312 640.160156 499.359375 639.679688 379.679688 L 639.199219 271.199219 L 635.359375 262.878906 C 630.398438 251.679688 617.441406 239.679688 607.199219 236.320312 C 596.160156 232.960938 588.640625 232 584.640625 233.601562 Z M 584.640625 233.601562 "/>
</g>
</svg>
