<?xml version="1.0" standalone="no"?>
<!DOCTYPE svg PUBLIC "-//W3C//DTD SVG 20010904//EN"
 "http://www.w3.org/TR/2001/REC-SVG-20010904/DTD/svg10.dtd">
<svg version="1.0" xmlns="http://www.w3.org/2000/svg"
 width="980.000000pt" height="908.000000pt" viewBox="0 0 980.000000 908.000000"
 preserveAspectRatio="xMidYMid meet">

<g transform="translate(0.000000,908.000000) scale(0.100000,-0.100000)"
fill="#000000" stroke="none">
<path d="M4495 9059 c-1284 -95 -2444 -592 -3289 -1409 -659 -638 -1063 -1416
-1178 -2270 -29 -217 -31 -652 -5 -855 113 -853 481 -1600 1103 -2237 l114
-117 -145 -1077 c-80 -592 -144 -1078 -143 -1080 2 -1 419 263 927 587 l923
590 136 -49 c646 -234 1264 -342 1957 -342 587 0 1090 72 1642 236 1730 513
2996 1840 3223 3375 142 967 -108 1919 -720 2734 -827 1103 -2197 1804 -3745
1915 -162 11 -639 11 -800 -1z m780 -449 c1225 -89 2325 -575 3096 -1366 909
-935 1212 -2165 815 -3319 -309 -902 -1037 -1682 -2021 -2165 -572 -281 -1205
-450 -1870 -499 -179 -14 -602 -14 -776 -1 -501 39 -959 137 -1425 305 l-120
44 -199 -20 c-172 -17 -205 -23 -240 -44 -22 -13 -256 -161 -520 -328 -356
-225 -481 -299 -483 -287 -2 9 33 279 78 601 l80 585 -65 188 -65 188 -112
117 c-186 195 -335 380 -453 561 -344 529 -523 1082 -542 1680 -28 881 334
1747 1017 2430 760 761 1856 1241 3030 1329 166 12 612 13 775 1z"/>
<path d="M2612 5680 c-208 -55 -360 -209 -413 -421 -37 -145 -14 -298 66 -435
42 -72 140 -164 221 -206 226 -119 489 -81 670 97 231 226 233 587 4 815 -144
144 -352 201 -548 150z"/>
<path d="M4892 5680 c-148 -39 -278 -139 -357 -274 -73 -126 -92 -313 -46
-454 49 -150 158 -276 296 -342 101 -49 182 -64 293 -57 154 10 273 67 381
183 209 223 203 571 -14 790 -150 150 -352 207 -553 154z"/>
<path d="M7193 5685 c-193 -42 -363 -201 -424 -395 -27 -85 -29 -232 -4 -315
54 -188 192 -334 373 -397 96 -33 268 -33 364 0 238 82 393 300 391 552 -3
365 -341 633 -700 555z"/>
</g>
</svg>
